# Blender v3.0.0 OBJ File: 'Nawiko.blend'
# www.blender.org
mtllib Bullet Casing.mtl
o Sniper_Rifle.001_Bullet_Casing
v -0.027177 0.004214 -0.004285
v -0.027177 0.001434 -0.002427
v -0.027177 0.000782 0.000852
v -0.027177 0.002639 0.003632
v -0.027177 0.005919 0.004285
v -0.027177 0.008699 0.002427
v -0.027177 0.009351 -0.000852
v -0.027177 0.007494 -0.003632
v 0.007618 0.004352 -0.003594
v 0.007618 0.002019 -0.002036
v 0.007618 0.001472 0.000715
v 0.007618 0.003031 0.003047
v 0.007618 0.005781 0.003594
v 0.007618 0.008114 0.002036
v 0.007618 0.008661 -0.000715
v 0.007618 0.007102 -0.003047
v 0.003901 0.004214 -0.004285
v 0.003901 0.001434 -0.002427
v 0.003901 0.000782 0.000852
v 0.003901 0.002639 0.003632
v 0.003901 0.005919 0.004285
v 0.003901 0.008699 0.002427
v 0.003901 0.009351 -0.000852
v 0.003901 0.007494 -0.003632
v 0.014215 0.004398 -0.003363
v 0.014215 0.002216 -0.001905
v 0.014215 0.001704 0.000669
v 0.014215 0.003162 0.002851
v 0.014215 0.005735 0.003363
v 0.014215 0.007917 0.001905
v 0.014215 0.008429 -0.000669
v 0.014215 0.006971 -0.002851
v 0.014215 0.004447 -0.003117
v 0.014215 0.002424 -0.001765
v 0.014215 0.001950 0.000620
v 0.014215 0.003301 0.002642
v 0.014215 0.005686 0.003117
v 0.014215 0.007709 0.001765
v 0.014215 0.008183 -0.000620
v 0.014215 0.006832 -0.002642
v -0.027526 0.004298 -0.003863
v -0.027526 0.001792 -0.002188
v -0.027526 0.001203 0.000768
v -0.027526 0.002878 0.003275
v -0.027526 0.005835 0.003863
v -0.027526 0.008341 0.002188
v -0.027526 0.008930 -0.000768
v -0.027526 0.007255 -0.003275
v -0.028845 0.004298 -0.003863
v -0.028845 0.001792 -0.002188
v -0.028845 0.001203 0.000768
v -0.028845 0.002878 0.003275
v -0.028845 0.005835 0.003863
v -0.028845 0.008341 0.002188
v -0.028845 0.008930 -0.000768
v -0.028845 0.007255 -0.003275
v -0.028845 0.004193 -0.004391
v -0.028845 0.001344 -0.002487
v -0.028845 0.000676 0.000873
v -0.028845 0.002579 0.003722
v -0.028845 0.005940 0.004391
v -0.028845 0.008789 0.002487
v -0.028845 0.009457 -0.000873
v -0.028845 0.007554 -0.003722
v -0.029982 0.004193 -0.004391
v -0.029982 0.001344 -0.002487
v -0.029982 0.000676 0.000873
v -0.029982 0.002579 0.003722
v -0.029982 0.005940 0.004391
v -0.029982 0.008789 0.002487
v -0.029982 0.009457 -0.000873
v -0.029982 0.007554 -0.003722
v -0.029982 0.005066 0.000000
v -0.029982 0.005066 0.000000
v -0.029982 0.005066 0.000000
v -0.029982 0.005066 0.000000
v -0.029982 0.005066 0.000000
v -0.029982 0.005066 0.000000
v -0.029982 0.005066 0.000000
v -0.029982 0.005066 0.000000
vt 0.687221 0.783736
vt 0.680608 0.783736
vt 0.680608 0.778888
vt 0.687221 0.778888
vt 0.695438 0.793433
vt 0.697150 0.793433
vt 0.697150 0.798282
vt 0.695438 0.798282
vt 0.642651 0.778888
vt 0.642651 0.783736
vt 0.695438 0.817675
vt 0.687221 0.817675
vt 0.687221 0.812827
vt 0.695438 0.812827
vt 0.695438 0.807978
vt 0.687221 0.807978
vt 0.695438 0.803130
vt 0.687221 0.803130
vt 0.687221 0.798282
vt 0.687221 0.793433
vt 0.695438 0.788585
vt 0.687221 0.788585
vt 0.695438 0.783736
vt 0.697150 0.788585
vt 0.642651 0.812827
vt 0.680608 0.812827
vt 0.680608 0.817675
vt 0.642651 0.817675
vt 0.642651 0.807978
vt 0.680608 0.807978
vt 0.642651 0.803130
vt 0.680608 0.803130
vt 0.642651 0.798282
vt 0.680608 0.798282
vt 0.642651 0.793433
vt 0.680608 0.793433
vt 0.642651 0.788585
vt 0.680608 0.788585
vt 0.697150 0.783736
vt 0.695438 0.778888
vt 0.697150 0.778888
vt 0.697150 0.812827
vt 0.697150 0.817675
vt 0.697150 0.807978
vt 0.697150 0.803130
vt 0.639714 0.812827
vt 0.639714 0.807978
vt 0.639714 0.793433
vt 0.639714 0.788585
vt 0.639714 0.798282
vt 0.639714 0.817675
vt 0.639714 0.783736
vt 0.639714 0.778888
vt 0.639714 0.803130
vt 0.637677 0.793433
vt 0.637677 0.788585
vt 0.637677 0.812827
vt 0.637677 0.807978
vt 0.637677 0.798282
vt 0.637677 0.817675
vt 0.637677 0.783736
vt 0.637677 0.778888
vt 0.637677 0.803130
vt 0.634004 0.803130
vt 0.634004 0.798282
vt 0.634004 0.788585
vt 0.634004 0.783736
vt 0.634004 0.807978
vt 0.634004 0.793433
vt 0.634004 0.812827
vt 0.634004 0.817675
vt 0.634004 0.778888
vt 0.632615 0.817675
vt 0.632615 0.812827
vt 0.632615 0.798282
vt 0.632615 0.793433
vt 0.632615 0.783736
vt 0.632615 0.778888
vt 0.632615 0.803130
vt 0.632615 0.788585
vt 0.632615 0.807978
vt 0.602046 0.798282
vt 0.602046 0.793433
vt 0.602046 0.817675
vt 0.602046 0.812827
vt 0.602046 0.783736
vt 0.602046 0.778888
vt 0.602046 0.803130
vt 0.602046 0.788585
vt 0.602046 0.807978
vn 0.1861 -0.8169 -0.5459
vn 0.0925 -0.8279 -0.5532
vn 0.0923 -0.1943 -0.9766
vn 0.1861 -0.1917 -0.9637
vn 1.0000 0.0000 -0.0000
vn -0.0000 -0.1951 -0.9808
vn 0.0000 -0.8315 -0.5556
vn 0.0358 -0.1950 -0.9802
vn 0.0358 0.5552 -0.8309
vn 0.0358 0.9802 -0.1950
vn 0.0358 0.8309 0.5552
vn 0.0358 0.1950 0.9802
vn 0.0358 -0.5552 0.8309
vn 0.0358 -0.9802 0.1950
vn 0.0358 -0.8309 -0.5552
vn -0.0000 0.5556 -0.8315
vn 0.0924 0.5532 -0.8279
vn -0.0000 0.9808 -0.1951
vn 0.0924 0.9766 -0.1943
vn -0.0000 0.8315 0.5556
vn 0.0924 0.8279 0.5532
vn 0.0000 0.1951 0.9808
vn 0.0924 0.1943 0.9766
vn 0.0000 -0.5556 0.8315
vn 0.0924 -0.5532 0.8279
vn 0.0000 -0.9808 0.1951
vn 0.0924 -0.9766 0.1943
vn 0.1861 -0.9637 0.1917
vn 0.1861 -0.5459 0.8169
vn 0.1861 0.1917 0.9637
vn 0.1861 0.8169 0.5459
vn 0.1861 0.9637 -0.1917
vn 0.1861 0.5459 -0.8169
vn -0.7767 0.6178 -0.1229
vn -0.7767 0.3500 -0.5238
vn -0.7766 -0.6178 0.1229
vn -0.7766 -0.3500 0.5238
vn -0.7767 0.1229 0.6178
vn -0.7767 -0.1229 -0.6178
vn -0.7766 -0.5238 -0.3500
vn -0.7767 0.5238 0.3500
vn -1.0000 0.0000 -0.0000
usemtl M_Metal
s 1
f 10/1/1 18/2/2 17/3/3 9/4/4
f 28/5/5 36/6/5 37/7/5 29/8/5
f 1/9/6 17/3/3 18/2/2 2/10/7
f 25/11/8 9/12/8 16/13/9 32/14/9
f 31/15/10 32/14/9 16/13/9 15/16/10
f 30/17/11 31/15/10 15/16/10 14/18/11
f 29/8/12 30/17/11 14/18/11 13/19/12
f 28/5/13 29/8/12 13/19/12 12/20/13
f 27/21/14 28/5/13 12/20/13 11/22/14
f 26/23/15 27/21/14 11/22/14 10/1/15
f 27/21/5 35/24/5 36/6/5 28/5/5
f 8/25/16 24/26/17 17/27/3 1/28/6
f 7/29/18 23/30/19 24/26/17 8/25/16
f 6/31/20 22/32/21 23/30/19 7/29/18
f 5/33/22 21/34/23 22/32/21 6/31/20
f 4/35/24 20/36/25 21/34/23 5/33/22
f 3/37/26 19/38/27 20/36/25 4/35/24
f 2/10/7 18/2/2 19/38/27 3/37/26
f 11/22/28 19/38/27 18/2/2 10/1/1
f 12/20/29 20/36/25 19/38/27 11/22/28
f 13/19/30 21/34/23 20/36/25 12/20/29
f 14/18/31 22/32/21 21/34/23 13/19/30
f 15/16/32 23/30/19 22/32/21 14/18/31
f 16/13/33 24/26/17 23/30/19 15/16/32
f 16/13/33 9/12/4 17/27/3 24/26/17
f 26/23/5 34/39/5 35/24/5 27/21/5
f 25/40/5 33/41/5 34/39/5 26/23/5
f 25/11/5 32/14/5 40/42/5 33/43/5
f 31/15/5 39/44/5 40/42/5 32/14/5
f 30/17/5 38/45/5 39/44/5 31/15/5
f 29/8/5 37/7/5 38/45/5 30/17/5
f 7/29/34 8/25/35 48/46/35 47/47/34
f 3/37/36 4/35/37 44/48/37 43/49/36
f 4/35/37 5/33/38 45/50/38 44/48/37
f 8/25/35 1/28/39 41/51/39 48/46/35
f 1/9/39 2/10/40 42/52/40 41/53/39
f 5/33/38 6/31/41 46/54/41 45/50/38
f 2/10/40 3/37/36 43/49/36 42/52/40
f 6/31/41 7/29/34 47/47/34 46/54/41
f 43/49/26 44/48/24 52/55/24 51/56/26
f 47/47/18 48/46/16 56/57/16 55/58/18
f 44/48/24 45/50/22 53/59/22 52/55/24
f 48/46/16 41/51/6 49/60/6 56/57/16
f 41/53/6 42/52/7 50/61/7 49/62/6
f 45/50/22 46/54/20 54/63/20 53/59/22
f 42/52/7 43/49/26 51/56/26 50/61/7
f 46/54/20 47/47/18 55/58/18 54/63/20
f 53/59/5 54/63/5 62/64/5 61/65/5
f 50/61/5 51/56/5 59/66/5 58/67/5
f 54/63/5 55/58/5 63/68/5 62/64/5
f 51/56/5 52/55/5 60/69/5 59/66/5
f 55/58/5 56/57/5 64/70/5 63/68/5
f 52/55/5 53/59/5 61/65/5 60/69/5
f 56/57/5 49/60/5 57/71/5 64/70/5
f 49/62/5 50/61/5 58/67/5 57/72/5
f 64/70/16 57/71/6 65/73/6 72/74/16
f 60/69/24 61/65/22 69/75/22 68/76/24
f 57/72/6 58/67/7 66/77/7 65/78/6
f 61/65/22 62/64/20 70/79/20 69/75/22
f 58/67/7 59/66/26 67/80/26 66/77/7
f 62/64/20 63/68/18 71/81/18 70/79/20
f 59/66/26 60/69/24 68/76/24 67/80/26
f 63/68/18 64/70/16 72/74/16 71/81/18
f 68/76/42 69/75/42 77/82/42 76/83/42
f 72/74/42 65/73/42 73/84/42 80/85/42
f 65/78/42 66/77/42 74/86/42 73/87/42
f 69/75/42 70/79/42 78/88/42 77/82/42
f 66/77/42 67/80/42 75/89/42 74/86/42
f 70/79/42 71/81/42 79/90/42 78/88/42
f 67/80/42 68/76/42 76/83/42 75/89/42
f 71/81/42 72/74/42 80/85/42 79/90/42
f 25/40/8 26/23/15 10/1/15 9/4/8
